<svg width="32" height="32" viewBox="0 0 32 32" fill="none" xmlns="http://www.w3.org/2000/svg">
<mask id="path-1-inside-1_345_351" fill="white">
<path d="M28 16V22H4V6H11V4H4C3.46957 4 2.96086 4.21071 2.58579 4.58579C2.21071 4.96086 2 5.46957 2 6V22C2 22.5304 2.21071 23.0391 2.58579 23.4142C2.96086 23.7893 3.46957 24 4 24H12V28H8V30H24V28H20V24H28C28.5304 24 29.0391 23.7893 29.4142 23.4142C29.7893 23.0391 30 22.5304 30 22V16H28ZM18 28H14V24H18V28Z"/>
</mask>
<path d="M28 16V22H4V6H11V4H4C3.46957 4 2.96086 4.21071 2.58579 4.58579C2.21071 4.96086 2 5.46957 2 6V22C2 22.5304 2.21071 23.0391 2.58579 23.4142C2.96086 23.7893 3.46957 24 4 24H12V28H8V30H24V28H20V24H28C28.5304 24 29.0391 23.7893 29.4142 23.4142C29.7893 23.0391 30 22.5304 30 22V16H28ZM18 28H14V24H18V28Z" fill="#12AE7A"/>
<path d="M28 16V12H24V16H28ZM28 22V26H32V22H28ZM4 22H0V26H4V22ZM4 6V2H0V6H4ZM11 6V10H15V6H11ZM11 4H15V0H11V4ZM4 4V0V4ZM2 6H-2H2ZM2 22H-2H2ZM12 24H16V20H12V24ZM12 28V32H16V28H12ZM8 28V24H4V28H8ZM8 30H4V34H8V30ZM24 30V34H28V30H24ZM24 28H28V24H24V28ZM20 28H16V32H20V28ZM20 24V20H16V24H20ZM30 16H34V12H30V16ZM18 28V32H22V28H18ZM14 28H10V32H14V28ZM14 24V20H10V24H14ZM18 24H22V20H18V24ZM24 16V22H32V16H24ZM28 18H4V26H28V18ZM8 22V6H0V22H8ZM4 10H11V2H4V10ZM15 6V4H7V6H15ZM11 0H4V8H11V0ZM4 0C2.4087 0 0.882578 0.63214 -0.242641 1.75736L5.41421 7.41421C5.03914 7.78929 4.53043 8 4 8V0ZM-0.242641 1.75736C-1.36786 2.88258 -2 4.4087 -2 6H6C6 6.53043 5.78929 7.03914 5.41421 7.41421L-0.242641 1.75736ZM-2 6V22H6V6H-2ZM-2 22C-2 23.5913 -1.36786 25.1174 -0.242641 26.2426L5.41421 20.5858C5.78929 20.9609 6 21.4696 6 22H-2ZM-0.242641 26.2426C0.882576 27.3679 2.4087 28 4 28V20C4.53043 20 5.03914 20.2107 5.41421 20.5858L-0.242641 26.2426ZM4 28H12V20H4V28ZM8 24V28H16V24H8ZM12 24H8V32H12V24ZM4 28V30H12V28H4ZM8 34H24V26H8V34ZM28 30V28H20V30H28ZM24 24H20V32H24V24ZM24 28V24H16V28H24ZM20 28H28V20H20V28ZM28 28C29.5913 28 31.1174 27.3679 32.2426 26.2426L26.5858 20.5858C26.9609 20.2107 27.4696 20 28 20V28ZM32.2426 26.2426C33.3679 25.1174 34 23.5913 34 22H26C26 21.4696 26.2107 20.9609 26.5858 20.5858L32.2426 26.2426ZM34 22V16H26V22H34ZM30 12H28V20H30V12ZM18 24H14V32H18V24ZM18 28V24H10V28H18ZM14 28H18V20H14V28ZM14 24V28H22V24H14Z" fill="#12AE7A" mask="url(#path-1-inside-1_345_351)"/>
<path d="M18 18H17.99C17.7745 17.9977 17.5656 17.9259 17.3942 17.7953C17.2228 17.6647 17.0982 17.4822 17.039 17.275L15.246 11H11V8.99999H16C16.2174 8.99987 16.4288 9.07057 16.6024 9.20139C16.776 9.3322 16.9022 9.51601 16.962 9.72499L18.036 13.485L21.045 3.70499C21.1094 3.50171 21.2365 3.32403 21.408 3.19739C21.5795 3.07075 21.7868 3.00165 22 2.99999C22.2107 2.99682 22.4168 3.06165 22.5878 3.18486C22.7587 3.30807 22.8854 3.4831 22.949 3.68399L24.72 8.99999H30V11H24C23.79 11 23.5854 10.934 23.415 10.8112C23.2447 10.6885 23.1173 10.5152 23.051 10.316L22.038 7.27599L18.956 17.294C18.8931 17.4984 18.7663 17.6773 18.5943 17.8044C18.4222 17.9315 18.2139 18 18 18Z" fill="#12AE7A"/>
</svg>
