<svg width="31" height="28" viewBox="0 0 31 28" fill="none" xmlns="http://www.w3.org/2000/svg">
<path d="M2.16667 28C1.69444 28 1.29889 27.84 0.98 27.52C0.661111 27.2 0.501111 26.8044 0.5 26.3333V24.6666C0.5 24.1944 0.66 23.7989 0.98 23.48C1.3 23.1611 1.69556 23.0011 2.16667 23C2.63778 22.9989 3.03389 23.1589 3.355 23.48C3.67611 23.8011 3.83556 24.1966 3.83333 24.6666V26.3333C3.83333 26.8055 3.67333 27.2016 3.35333 27.5216C3.03333 27.8416 2.63778 28.0011 2.16667 28ZM8.83333 28C8.36111 28 7.96556 27.84 7.64667 27.52C7.32778 27.2 7.16778 26.8044 7.16667 26.3333V17.1666C7.16667 16.6944 7.32667 16.2989 7.64667 15.98C7.96667 15.6611 8.36222 15.5011 8.83333 15.5C9.30444 15.4989 9.70056 15.6589 10.0217 15.98C10.3428 16.3011 10.5022 16.6966 10.5 17.1666V26.3333C10.5 26.8055 10.34 27.2016 10.02 27.5216C9.7 27.8416 9.30444 28.0011 8.83333 28ZM15.5 28C15.0278 28 14.6322 27.84 14.3133 27.52C13.9944 27.2 13.8344 26.8044 13.8333 26.3333V20.5C13.8333 20.0278 13.9933 19.6322 14.3133 19.3133C14.6333 18.9944 15.0289 18.8344 15.5 18.8333C15.9711 18.8322 16.3672 18.9922 16.6883 19.3133C17.0094 19.6344 17.1689 20.03 17.1667 20.5V26.3333C17.1667 26.8055 17.0067 27.2016 16.6867 27.5216C16.3667 27.8416 15.9711 28.0011 15.5 28ZM22.1667 28C21.6944 28 21.2989 27.84 20.98 27.52C20.6611 27.2 20.5011 26.8044 20.5 26.3333V18C20.5 17.5278 20.66 17.1322 20.98 16.8133C21.3 16.4944 21.6956 16.3344 22.1667 16.3333C22.6378 16.3322 23.0339 16.4922 23.355 16.8133C23.6761 17.1344 23.8356 17.53 23.8333 18V26.3333C23.8333 26.8055 23.6733 27.2016 23.3533 27.5216C23.0333 27.8416 22.6378 28.0011 22.1667 28ZM28.8333 28C28.3611 28 27.9656 27.84 27.6467 27.52C27.3278 27.2 27.1678 26.8044 27.1667 26.3333V11.3333C27.1667 10.8611 27.3267 10.4655 27.6467 10.1466C27.9667 9.82775 28.3622 9.66775 28.8333 9.66664C29.3044 9.66553 29.7006 9.82553 30.0217 10.1466C30.3428 10.4678 30.5022 10.8633 30.5 11.3333V26.3333C30.5 26.8055 30.34 27.2016 30.02 27.5216C29.7 27.8416 29.3044 28.0011 28.8333 28ZM18.8333 12.9583C18.3889 12.9583 17.965 12.875 17.5617 12.7083C17.1583 12.5416 16.7906 12.3055 16.4583 12L12.1667 7.70831L3.33333 16.5416C3 16.875 2.60444 17.035 2.14667 17.0216C1.68889 17.0083 1.29278 16.8344 0.958333 16.5C0.652778 16.1666 0.507222 15.7711 0.521667 15.3133C0.536111 14.8555 0.695555 14.4733 1 14.1666L9.79167 5.37497C10.125 5.04164 10.4933 4.79886 10.8967 4.64664C11.3 4.49442 11.7233 4.41775 12.1667 4.41664C12.61 4.41553 13.0406 4.4922 13.4583 4.64664C13.8761 4.80109 14.2372 5.04386 14.5417 5.37497L18.8333 9.66664L27.6667 0.833308C28 0.499974 28.3961 0.339975 28.855 0.353308C29.3139 0.366642 29.7094 0.54053 30.0417 0.874974C30.3472 1.20831 30.4933 1.60442 30.48 2.06331C30.4667 2.5222 30.3067 2.90386 30 3.20831L21.2083 12C20.9028 12.3055 20.5417 12.5416 20.125 12.7083C19.7083 12.875 19.2778 12.9583 18.8333 12.9583Z" fill="#B8B8B8"/>
</svg>
