<svg width="30" height="30" viewBox="0 0 30 30" fill="none" xmlns="http://www.w3.org/2000/svg">
<path d="M7.61042 28.9867V29.2367H7.86042L17.2722 29.2367H17.2727H17.273C19.2383 29.2343 21.0174 28.4356 22.3045 27.1465L28.1668 21.2855C28.8358 20.6176 29.25 19.6937 29.25 18.6735L29.2498 18.643L29.2498 18.6424L29.2498 18.6411L29.25 18.605C29.25 16.5761 27.6053 14.9313 25.5764 14.9313C24.5342 14.9313 23.5933 15.3656 22.9239 16.0633L19.4592 19.5222C18.8844 18.2716 17.628 17.3986 16.1653 17.38V10.2386H17.3594H17.3599H17.3602C21.2913 10.2342 24.4772 7.04825 24.4817 3.11669V3.11641V2.18271V1.93271H24.2317L20.9196 1.93271L20.9194 1.93271C18.6745 1.93522 16.6726 2.97523 15.3674 4.59913C14.1813 2.31452 11.795 0.753092 9.04344 0.75H9.04316H5.74399H5.49398L5.49399 1.00001L5.49401 1.9337L5.49401 1.93433L5.49401 1.93475C5.50061 5.86024 8.67787 9.04199 12.6029 9.05593H12.6038H13.7979V17.3802H11.6873L10.8197 16.9515L10.8203 16.9504C9.87319 16.4728 8.80299 16.2038 7.67064 16.2038C6.00845 16.2038 4.48056 16.7832 3.29209 17.7412C3.29183 17.7414 3.29157 17.7416 3.29131 17.7418L3.28108 17.7499L3.28107 17.7499L3.27819 17.7522C1.73554 19.0127 0.75 20.931 0.75 23.0793C0.75 23.1128 0.750273 23.146 0.750629 23.1743V23.2972V23.5472H1.00063H2.86811H3.11811V23.2972V23.1528V23.1491H3.11808C3.11774 23.1255 3.11756 23.102 3.11756 23.0786C3.11756 21.6682 3.76343 20.4087 4.78547 19.5728L4.78538 19.5727C5.57804 18.9384 6.58318 18.5593 7.67755 18.5593C8.42978 18.5593 9.1385 18.7384 9.73662 19.042L9.7389 19.0432L11.0922 19.713L11.1446 19.7389H11.2031H16.094H16.0957V19.5661L16.0995 19.7388C16.1087 19.7386 16.1181 19.7386 16.1277 19.7386C16.7462 19.7386 17.2663 20.1687 17.4031 20.7587C17.4115 20.8154 17.4159 20.8737 17.4159 20.933C17.4159 21.5675 16.9158 22.0853 16.2879 22.1135H16.1643H10.2382H9.98825V22.3635V24.2309V24.4809H10.2382H15.9765V24.4822H16.2265H17.7453H17.8488L17.9221 24.4089L24.6249 17.7061L24.6251 17.7062L24.6313 17.6995C24.8695 17.45 25.2046 17.295 25.5763 17.295C26.2977 17.295 26.8825 17.8799 26.8825 18.6013L26.8824 18.6215H26.8823V18.6261V18.6549V18.656H27.0587L26.8824 18.6586L26.8825 18.6769C26.8825 19.0413 26.7348 19.3707 26.4953 19.6093L26.495 19.6096L20.6286 25.476L20.6284 25.4762C19.7698 26.3365 18.5835 26.8686 17.2723 26.8692C17.2723 26.8692 17.2722 26.8692 17.2722 26.8692H7.86042H7.61042V27.1192V28.9867ZM17.3591 7.87116H16.3135C16.8422 5.81951 18.7039 4.3032 20.9202 4.30014C20.9202 4.30014 20.9203 4.30014 20.9204 4.30014L21.966 4.30014C21.4373 6.35183 19.5754 7.86817 17.3591 7.87116ZM8.01239 3.11743H9.04315C11.2483 3.1204 13.104 4.62239 13.647 6.68843L12.605 6.68845H12.6044C10.4049 6.67929 8.55522 5.17944 8.01239 3.11743Z" fill="#C1C1C1" stroke="#C1C1C1" stroke-width="0.5"/>
</svg>
