<svg width="32" height="32" viewBox="0 0 32 32" fill="none" xmlns="http://www.w3.org/2000/svg">
<path d="M8.22222 4.94737H5.11111C4.28599 4.94737 3.49467 5.2579 2.91122 5.81064C2.32778 6.36338 2 7.11305 2 7.89474V25.579C2 26.3606 2.32778 27.1103 2.91122 27.6631C3.49467 28.2158 4.28599 28.5263 5.11111 28.5263H13.9731M23.7778 18.2105V24.1053H30M23.7778 13.7895V7.89474C23.7778 7.11305 23.45 6.36338 22.8666 5.81064C22.2831 5.2579 21.4918 4.94737 20.6667 4.94737H17.5556" stroke="#C1C1C1" stroke-width="3" stroke-linecap="round" stroke-linejoin="round"/>
<path d="M8.22217 13.7895H14.4444M8.22217 19.6842H12.8888M8.22217 4.94737C8.22217 4.16568 8.54995 3.416 9.13339 2.86326C9.71684 2.31053 10.5082 2 11.3333 2H14.4444C15.2695 2 16.0608 2.31053 16.6443 2.86326C17.2277 3.416 17.5555 4.16568 17.5555 4.94737C17.5555 5.72906 17.2277 6.47873 16.6443 7.03147C16.0608 7.58421 15.2695 7.89474 14.4444 7.89474H11.3333C10.5082 7.89474 9.71684 7.58421 9.13339 7.03147C8.54995 6.47873 8.22217 5.72906 8.22217 4.94737ZM17.5555 24.1053C17.5555 25.6686 18.2111 27.168 19.3779 28.2735C20.5448 29.3789 22.1275 30 23.7777 30C25.428 30 27.0106 29.3789 28.1775 28.2735C29.3444 27.168 29.9999 25.6686 29.9999 24.1053C29.9999 22.5419 29.3444 21.0425 28.1775 19.9371C27.0106 18.8316 25.428 18.2105 23.7777 18.2105C22.1275 18.2105 20.5448 18.8316 19.3779 19.9371C18.2111 21.0425 17.5555 22.5419 17.5555 24.1053Z" stroke="#C1C1C1" stroke-width="3" stroke-linecap="round" stroke-linejoin="round"/>
</svg>
