<svg width="28" height="28" viewBox="0 0 28 28" fill="none" xmlns="http://www.w3.org/2000/svg">
<path d="M22.0836 3.11111C23.0187 3.11111 23.9538 3.11111 24.733 3.26667C25.0447 6.84444 25.0447 14 20.8368 18.9778C17.7198 22.8667 12.4208 24.8889 5.25173 24.8889H3.22568C2.91398 17.7333 4.31663 12.1333 7.58949 8.55555C11.4857 4.04444 17.7198 3.11111 22.0836 3.11111ZM22.0836 0C13.5118 0 -2.22909 3.26667 0.264518 27.6889C1.97887 27.8444 3.69323 28 5.25173 28C33.149 28 27.5383 0.466667 27.5383 0.466667C27.5383 0.466667 25.3564 0 22.0836 0ZM21.7719 6.22222C6.18683 6.22222 6.18683 21.7778 6.18683 21.7778C12.4208 9.33333 21.7719 6.22222 21.7719 6.22222Z" fill="#12AE7A" fill-opacity="0.94"/>
</svg>
