<svg width="33" height="32" viewBox="0 0 33 32" fill="none" xmlns="http://www.w3.org/2000/svg">
<path d="M16.5 16H21.3333C23.8971 16 26.3558 15.0167 28.1687 13.2663C29.9816 11.516 31 9.14202 31 6.66667V5.11111H26.1667C23.6029 5.11111 21.1442 6.09444 19.3313 7.84478C17.5185 9.59512 16.5 11.9691 16.5 14.4444H11.6667C9.10291 14.4444 6.64415 13.4611 4.8313 11.7108C3.01845 9.96043 2 7.58647 2 5.11111V2H6.83333C9.39709 2 11.8558 2.98333 13.6687 4.73367C15.4816 6.48401 16.5 8.85798 16.5 11.3333V20.6667M8.44444 20.6667H24.5556V26.8889C24.5556 27.714 24.2161 28.5053 23.6118 29.0888C23.0075 29.6722 22.1879 30 21.3333 30H11.6667C10.8121 30 9.9925 29.6722 9.38821 29.0888C8.78393 28.5053 8.44444 27.714 8.44444 26.8889V20.6667Z" stroke="#C1C1C1" stroke-width="3" stroke-linecap="round" stroke-linejoin="round"/>
</svg>
